<svg width="58" height="58" viewBox="0 0 58 58" fill="none" xmlns="http://www.w3.org/2000/svg">
<path d="M36.7623 43.7769V43.7655C43.9994 43.7655 49.8782 37.8753 49.8782 30.6496C49.8782 29.7592 49.159 29.04 48.2687 29.04C47.3783 29.04 46.6591 29.7592 46.6591 30.6496C46.6591 36.106 42.2187 40.5464 36.7623 40.5464H21.2377C15.7813 40.5464 11.3409 36.106 11.3409 30.6496C11.3409 29.7592 10.6217 29.04 9.73135 29.04C8.84098 29.04 8.12183 29.7592 8.12183 30.6496C8.12183 37.8867 14.012 43.7655 21.2377 43.7655H27.3905V48.3315H23.2011C18.7607 48.3315 15.1421 51.9501 15.1421 56.3906C15.1421 57.2809 15.8612 58.0001 16.7516 58.0001C16.7516 58.0001 41.237 58.0001 41.2484 58.0001C42.9378 58.0001 42.8465 56.2193 42.8351 56.1394C42.6981 51.8131 39.1366 48.3429 34.7874 48.3429H30.5981V43.7769H36.7623ZM34.7989 51.5506C36.8992 51.5506 38.6914 52.8975 39.3535 54.7696H18.6465C19.3086 52.8975 21.1008 51.5506 23.2011 51.5506H34.7989Z" fill="white"/>
<path d="M36.7623 0H21.2378C17.5507 0 14.5599 2.99075 14.5599 6.67782V30.6381C14.5599 34.3251 17.5621 37.3159 21.2378 37.3159H36.7623C40.4493 37.3159 43.4401 34.3251 43.4401 30.6381V6.67782C43.4401 2.99075 40.4379 0 36.7623 0ZM40.221 10.1252H36.1344C35.2441 10.1252 34.5249 10.8443 34.5249 11.7347C34.5249 12.6251 35.2441 13.3442 36.1344 13.3442H40.221V17.0427H36.1344C35.2441 17.0427 34.5249 17.7619 34.5249 18.6522C34.5249 19.5426 35.2441 20.2618 36.1344 20.2618H40.221V23.9717H36.1344C35.2441 23.9717 34.5249 24.6908 34.5249 25.5812C34.5249 26.4716 35.2441 27.1907 36.1344 27.1907H40.221V30.6381C40.221 32.5444 38.6686 34.0968 36.7623 34.0968H21.2378C19.3314 34.0968 17.779 32.5444 17.779 30.6381V27.1907H21.8656C22.756 27.1907 23.4751 26.4716 23.4751 25.5812C23.4751 24.6908 22.756 23.9717 21.8656 23.9717H17.779V20.2732H21.8656C22.756 20.2732 23.4751 19.554 23.4751 18.6636C23.4751 17.7733 22.756 17.0541 21.8656 17.0541H17.779V13.3556H21.8656C22.756 13.3556 23.4751 12.6365 23.4751 11.7461C23.4751 10.8557 22.756 10.1366 21.8656 10.1366H17.779V6.67782C17.779 4.7715 19.3314 3.21905 21.2378 3.21905H36.7623C38.6686 3.21905 40.221 4.7715 40.221 6.67782V10.1252Z" fill="white"/>
</svg>
